<svg width="207" height="24" viewBox="0 0 207 24" xmlns="http://www.w3.org/2000/svg">
  <g fill-rule="nonzero" fill="none">
    <path d="M66.624 6.836c-.51-.499-1.11-.898-1.768-1.175a5.207 5.207 0 00-2.107-.462 5.053 5.053 0 00-4.965 3.284 9.36 9.36 0 00-.651 3.62c0 2.19.464 3.868 1.394 5.033.93 1.165 2.206 1.75 3.83 1.75a5.613 5.613 0 003.918-1.482v1.089c0 .922-.265 1.579-.793 1.965-.528.387-1.468.584-2.822.584a9.956 9.956 0 01-4.247-.963l-.965 2.676a11.31 11.31 0 005.212 1.141c2.41 0 4.16-.433 5.25-1.3 1.09-.868 1.635-2.188 1.637-3.962V5.581h-2.499l-.424 1.255zm-.341 7.862c-1.01.87-2.059 1.305-3.145 1.306a2.274 2.274 0 01-1.898-.965c-.485-.642-.727-1.639-.727-2.991 0-1.192.274-2.152.823-2.88.55-.728 1.223-1.091 2.021-1.091a4.338 4.338 0 012.931 1.192l-.005 5.43zm6.96 4.184h3.284V5.58h-3.284v13.3zM74.855.29c-.652 0-1.112.13-1.382.389-.27.257-.407.682-.407 1.263-.03.442.104.88.374 1.23.253.288.72.432 1.415.432.626 0 1.091-.123 1.394-.369.303-.246.456-.677.458-1.293 0-.608-.144-1.037-.432-1.286-.288-.25-.762-.372-1.42-.366zM44.597 2.23c-1.221-.598-2.867-.898-4.939-.9h-5.3v17.55h5.35c2.133 0 3.786-.29 4.96-.873a5.586 5.586 0 002.637-2.805c.585-1.283.876-2.982.874-5.095-.001-2.114-.293-3.799-.874-5.055a5.661 5.661 0 00-2.708-2.822zm-.563 11.262a2.903 2.903 0 01-1.529 1.63c-.716.326-1.778.489-3.188.487h-1.37V4.603h1.37c1.41 0 2.475.16 3.196.482.698.306 1.244.88 1.516 1.592.3.74.45 1.875.452 3.406.002 1.53-.148 2.667-.447 3.41zm41.558 3.082a1.38 1.38 0 01-1.097-.444c-.258-.295-.386-.858-.386-1.688V8.18h3.094v-2.6H84.11V1.878h-3.267v3.704H79.15v2.6h1.693v6.681c0 1.557.337 2.68 1.01 3.373.674.692 1.782 1.04 3.323 1.04a9.662 9.662 0 002.779-.393l-.571-2.676a4.638 4.638 0 01-1.791.37zM51.11 18.882h3.271V5.58H51.11v13.3zM52.72.29c-.653 0-1.112.13-1.383.389-.27.257-.406.682-.406 1.263-.029.442.104.879.373 1.23.251.288.723.432 1.415.432.627 0 1.092-.123 1.395-.369.303-.246.454-.673.454-1.283 0-.608-.144-1.037-.432-1.286C53.853.417 53.38.29 52.72.29zm87.096 14.177c-1.362 1.279-2.53 1.917-3.501 1.915a1.768 1.768 0 01-1.096-.285 1.703 1.703 0 01-.539-1.034c-.129-.71-.185-1.432-.166-2.155V5.583h-3.285v8.888c0 1.54.301 2.725.902 3.557.602.832 1.654 1.253 3.158 1.263a5.616 5.616 0 002.403-.591 6.821 6.821 0 002.112-1.516v1.713h3.271V5.58h-3.259v8.887zm24.677 0c-1.36 1.279-2.528 1.917-3.501 1.915a1.768 1.768 0 01-1.096-.285 1.703 1.703 0 01-.539-1.034c-.129-.71-.185-1.432-.166-2.155V5.583h-3.284v8.888c0 1.54.3 2.725.901 3.557.602.832 1.654 1.253 3.158 1.263a5.616 5.616 0 002.403-.591 6.821 6.821 0 002.112-1.516v1.713h3.284V5.58h-3.284l.012 8.887zm12.033-8.496c-.666.42-1.273.93-1.8 1.516V5.581h-3.285v13.3h3.284v-8.647c.5-.5 1.065-.929 1.68-1.276a3.638 3.638 0 011.733-.437c.461-.018.92.069 1.344.253l.644-3.13c-.288-.18-.77-.27-1.447-.268a4.022 4.022 0 00-2.153.596zm10.78-.773c-4.26 0-6.391 2.38-6.391 7.14 0 2.324.538 4.061 1.616 5.211 1.078 1.15 2.712 1.726 4.901 1.726 1.47 0 2.631-.19 3.482-.571a4.936 4.936 0 002.074-1.726l-2.436-1.738c-.32.427-.76.75-1.263.927a5.442 5.442 0 01-1.692.253c-1.107 0-1.919-.258-2.436-.773-.517-.515-.804-1.365-.861-2.55h8.842v-1.62c0-2.047-.497-3.605-1.49-4.675-.994-1.07-2.443-1.604-4.346-1.604zm-2.93 5.631a5.573 5.573 0 01.528-1.846 2.23 2.23 0 01.891-.887c.447-.215.94-.318 1.435-.298 1.767 0 2.65 1.01 2.65 3.031h-5.504zM99.699 6.283c-.917-.723-2.41-1.084-4.482-1.084a8.956 8.956 0 00-3.461.612 4.295 4.295 0 00-2.107 1.733l2.562 1.624a2.4 2.4 0 011.134-1.01 4.335 4.335 0 011.834-.357c.862 0 1.517.138 1.965.412.448.275.672.78.672 1.516v.596l-2.801.253c-1.422.145-2.51.392-3.267.742a3.863 3.863 0 00-1.713 1.453 4.368 4.368 0 00-.576 2.344 4.083 4.083 0 001.13 2.974c.758.776 1.864 1.162 3.334 1.162s2.865-.591 4.159-1.768v1.382h3.006V9.853c-.008-1.656-.472-2.846-1.39-3.57zm-1.895 8.958a7.104 7.104 0 01-1.68 1.061c-.455.22-.949.347-1.453.374a2.413 2.413 0 01-1.344-.336c-.337-.225-.505-.647-.505-1.263a1.748 1.748 0 01.78-1.559c.52-.347 1.368-.57 2.542-.672l1.662-.151-.002 2.546zm107.934-2.16a3.99 3.99 0 00-1.473-1.369c-.646-.369-1.726-.74-3.238-1.112-.922-.227-1.539-.444-1.852-.651a.955.955 0 01-.47-.832c.003-.369.2-.709.52-.894.467-.261 1-.382 1.534-.348 1.318 0 2.27.448 2.854 1.344l2.448-1.736a4.464 4.464 0 00-2.099-1.713 8.084 8.084 0 00-3.15-.57c-1.75 0-3.076.38-3.977 1.141a3.638 3.638 0 00-1.351 2.903 3.706 3.706 0 001.079 2.764c.717.712 1.96 1.262 3.728 1.65.71.151 1.402.374 2.067.666.386.143.647.506.66.917 0 .908-.779 1.361-2.335 1.36a5.017 5.017 0 01-1.667-.273 2.9 2.9 0 01-1.375-1.087l-2.435 1.713c1.01 1.546 2.904 2.32 5.682 2.322a7.427 7.427 0 002.794-.505 4.16 4.16 0 001.89-1.433c.825-1.287.889-2.92.166-4.267v.01zm-101.075 5.81h3.271V0h-3.271v18.892zm13.265 0h3.588v-7.326h6.467v-3.17h-6.467v-3.79h7.71V1.331h-11.298v17.56zm33.853-2.306a1.38 1.38 0 01-1.096-.444c-.258-.295-.387-.858-.387-1.688V8.18h3.092v-2.6h-3.1V1.878h-3.258v3.704h-1.688v2.6h1.688v6.681c0 1.557.336 2.68 1.01 3.373.674.692 1.781 1.04 3.322 1.04a9.675 9.675 0 002.78-.393l-.572-2.676c-.569.242-1.18.367-1.799.37l.008.01z" fill="#000"/>
    <path d="M12.126 0H0v4.042h12.126a6.063 6.063 0 010 12.126H4.042v4.043h8.084c5.581 0 10.106-4.525 10.106-10.106C22.232 4.525 17.707 0 12.126 0zm2.021 10.105a2.021 2.021 0 00-2.02-2.02H2.02v4.041h10.105a2.021 2.021 0 002.021-2.02z" fill="#0064DC"/>
  </g>
</svg>
